<svg width="40" height="40" viewBox="0 0 40 40" fill="none" xmlns="http://www.w3.org/2000/svg">
<path d="M37.9296 27.0701C36.965 27.742 35.8565 28.1787 34.6928 28.3454C33.5291 28.512 32.3426 28.404 31.2282 28.0298C31.1272 27.9939 31.0191 27.9828 30.9129 27.9975C30.8068 28.0122 30.7057 28.0524 30.6184 28.1145L27.6193 30.2412L28.391 31.3282L31.1122 29.3954C32.3841 29.7669 33.7228 29.8501 35.0308 29.6387C36.3388 29.4274 37.5832 28.9269 38.6734 28.1738C39.0662 27.9084 39.4384 27.6139 39.787 27.2927L38.8833 26.313C38.585 26.5891 38.2662 26.8422 37.9296 27.0701Z" fill="#BF9444"/>
<path d="M31.2183 17.1237C30.2644 17.7331 29.5002 18.5976 29.0124 19.6191C28.5247 20.6406 28.3327 21.7783 28.4584 22.9033L20.0095 28.3191L11.5593 22.9066C11.6877 21.7813 11.4967 20.6425 11.0082 19.6206C10.5196 18.5987 9.75326 17.735 8.7968 17.1283C7.52716 16.2532 5.98327 15.8682 4.4514 16.0446C3.72881 16.1154 3.03075 16.3448 2.40707 16.7165C1.78339 17.0882 1.24946 17.593 0.843409 18.1948C0.43736 18.7967 0.169207 19.4808 0.058096 20.1983C-0.0530152 20.9158 -0.0043435 21.649 0.200636 22.3455C0.611259 23.8312 1.54687 25.1175 2.83387 25.9657C3.75538 26.6263 4.84442 27.0138 5.97608 27.0837C7.10775 27.1536 8.2362 26.9031 9.232 26.361L15.7908 31.0176L9.54924 35.0198C9.25422 35.2072 8.99982 35.452 8.80113 35.7396C8.60243 36.0272 8.46348 36.3517 8.3925 36.694C8.32153 37.0362 8.31997 37.3892 8.38793 37.7321C8.45589 38.075 8.59198 38.4007 8.78813 38.69C8.98353 38.9787 9.23465 39.2255 9.52673 39.4158C9.81882 39.6061 10.146 39.7361 10.489 39.7982C10.832 39.8602 11.184 39.8532 11.5243 39.7773C11.8645 39.7015 12.1862 39.5584 12.4704 39.3565L20.0095 34.0101L27.5487 39.3605C27.8332 39.5686 28.1568 39.7172 28.5001 39.7973C28.8434 39.8774 29.1993 39.8873 29.5465 39.8266C29.8938 39.7658 30.2252 39.6356 30.5209 39.4437C30.8166 39.2519 31.0705 39.0023 31.2675 38.7099C31.4644 38.4175 31.6003 38.0884 31.667 37.7423C31.7337 37.3961 31.7299 37.0401 31.6557 36.6955C31.5816 36.3508 31.4386 36.0247 31.2354 35.7367C31.0322 35.4486 30.7729 35.2046 30.4731 35.0191L24.2243 31.0203L30.7877 26.3616C31.7834 26.904 32.9118 27.1547 34.0434 27.085C35.1751 27.0153 36.2642 26.6281 37.1859 25.9678C39.9251 24.119 40.8195 20.6306 39.1779 18.1914C37.5364 15.7521 33.9635 15.2749 31.2183 17.1237ZM11.6986 38.2722C11.4138 38.4638 11.0654 38.5366 10.7278 38.475C10.3901 38.4134 10.0898 38.2222 9.89114 37.9423C9.79497 37.8004 9.72826 37.6406 9.69497 37.4725C9.66169 37.3043 9.6625 37.1312 9.69737 36.9634C9.73224 36.7956 9.80045 36.6365 9.89797 36.4955C9.99548 36.3546 10.1203 36.2346 10.265 36.1428L16.9624 31.848L18.8545 33.1903L11.6986 38.2722ZM30.3199 36.9639C30.3721 37.2168 30.347 37.4795 30.2478 37.7179C30.1487 37.9563 29.9801 38.1594 29.7639 38.3007C29.5478 38.4419 29.2942 38.5149 29.036 38.5101C28.7778 38.5052 28.5271 38.4228 28.3164 38.2735L9.62922 25.0107C9.51528 24.9299 9.37882 24.8869 9.23914 24.8879C9.09946 24.8889 8.96361 24.9337 8.85078 25.016C8.06124 25.5313 7.13293 25.7926 6.19054 25.7648C5.24815 25.7371 4.33682 25.4216 3.57898 24.8607C2.55935 24.1919 1.81678 23.1761 1.48893 22.0016C1.33205 21.4885 1.29187 20.9469 1.37132 20.4163C1.45077 19.8857 1.64785 19.3795 1.94813 18.9349C2.24842 18.4903 2.6443 18.1185 3.10683 17.8466C3.56936 17.5747 4.08682 17.4097 4.62135 17.3636C5.83302 17.2276 7.05292 17.5354 8.05501 18.23C8.85832 18.723 9.49155 19.4501 9.86968 20.3134C10.2478 21.1768 10.3527 22.1352 10.1704 23.0599C10.1361 23.1955 10.1454 23.3384 10.1968 23.4684C10.2482 23.5984 10.3393 23.709 10.457 23.7844L29.754 36.1421C29.8988 36.234 30.0235 36.3541 30.1207 36.4953C30.2179 36.6365 30.2857 36.7959 30.3199 36.9639ZM36.4381 24.8594C35.68 25.4201 34.7685 25.7354 33.826 25.7629C32.8835 25.7904 31.9551 25.5289 31.1656 25.0134C31.0528 24.931 30.9169 24.8862 30.7772 24.8852C30.6376 24.8843 30.5011 24.9272 30.3872 25.008L23.014 30.2425L21.2465 29.1095L29.5601 23.7777C29.6775 23.7024 29.7684 23.592 29.8198 23.4623C29.8712 23.3326 29.8806 23.19 29.8467 23.0546C29.6679 22.1297 29.7748 21.1723 30.1531 20.3096C30.5315 19.4469 31.1633 18.7197 31.9647 18.2247C34.0974 16.7871 36.8393 17.1043 38.0716 18.9298C39.3039 20.7553 38.5701 23.4218 36.4381 24.8594Z" fill="#BF9444"/>
<path d="M7.29798 1.22155L6.56019 0.111206C4.95026 1.17797 3.7429 2.75205 3.12985 4.58345C2.51681 6.41486 2.53323 8.39859 3.17651 10.2196L4.43281 9.77439C3.88886 8.2333 3.87543 6.55465 4.39466 5.00505C4.91389 3.45546 5.936 2.12379 7.29865 1.22155H7.29798Z" fill="#BF9444"/>
<path d="M5.84711 12.175C5.5262 11.811 5.24181 11.4163 4.99802 10.9967L3.84436 11.6632C4.1322 12.1593 4.46816 12.6258 4.8474 13.0561L5.84711 12.175Z" fill="#BF9444"/>
<path d="M27.3274 22.7933L29.2248 13.3067C30.7675 13.1725 32.1984 12.4469 33.2183 11.2817C34.2382 10.1165 34.768 8.60208 34.6968 7.05523C34.6256 5.50839 33.9589 4.04902 32.8363 2.98246C31.7137 1.91591 30.2221 1.32482 28.6737 1.33288C27.326 1.32811 26.017 1.78301 24.9627 2.6225C24.4136 1.81455 23.6752 1.15318 22.8118 0.696078C21.9485 0.238971 20.9864 0 20.0095 0C19.0326 0 18.0705 0.238971 17.2072 0.696078C16.3438 1.15318 15.6054 1.81455 15.0563 2.6225C14.002 1.78301 12.693 1.32811 11.3454 1.33288C9.8022 1.33274 8.31834 1.92735 7.2023 2.9931C6.08625 4.05884 5.42389 5.51372 5.35291 7.05525C5.28194 8.59679 5.80781 10.1064 6.82121 11.2702C7.8346 12.434 9.25754 13.1624 10.7942 13.3041L12.6916 22.7933L13.9979 22.532L13.6247 20.6606H26.3943L26.0211 22.5267L27.3274 22.7933ZM24.1103 19.3276L24.6682 15.4234L23.3485 15.2342L22.764 19.3276H20.676V11.9964H19.343V19.3276H17.255L16.6705 15.2342L15.3509 15.4234L15.9087 19.3276H13.3581L11.9985 12.5296C11.9678 12.3791 11.886 12.2438 11.767 12.1466C11.6479 12.0495 11.499 11.9964 11.3454 11.9964C10.1081 11.9964 8.92141 11.5049 8.0465 10.63C7.17158 9.75509 6.68006 8.56845 6.68006 7.33113C6.68006 6.09382 7.17158 4.90718 8.0465 4.03226C8.92141 3.15735 10.1081 2.66583 11.3454 2.66583C11.9805 2.6642 12.6092 2.79357 13.192 3.04585C13.7749 3.29813 14.2995 3.6679 14.733 4.13206C14.8071 4.2104 14.8991 4.26959 15.0011 4.30457C15.1031 4.33955 15.212 4.34926 15.3186 4.33287C15.4251 4.31649 15.5261 4.2745 15.6129 4.2105C15.6997 4.14651 15.7696 4.06242 15.8167 3.96545C16.1975 3.17696 16.7928 2.51181 17.5344 2.04636C18.2761 1.5809 19.1339 1.334 20.0095 1.334C20.8851 1.334 21.743 1.5809 22.4846 2.04636C23.2262 2.51181 23.8216 3.17696 24.2023 3.96545C24.2494 4.06242 24.3194 4.14651 24.4061 4.2105C24.4929 4.2745 24.5939 4.31649 24.7004 4.33287C24.807 4.34926 24.916 4.33955 25.0179 4.30457C25.1199 4.26959 25.2119 4.2104 25.286 4.13206C25.7195 3.6679 26.2441 3.29813 26.827 3.04585C27.4099 2.79357 28.0385 2.6642 28.6737 2.66583C29.911 2.66583 31.0976 3.15735 31.9725 4.03226C32.8474 4.90718 33.339 6.09382 33.339 7.33113C33.339 8.56845 32.8474 9.75509 31.9725 10.63C31.0976 11.5049 29.911 11.9964 28.6737 11.9964C28.52 11.9964 28.3711 12.0495 28.2521 12.1466C28.133 12.2438 28.0512 12.3791 28.0205 12.5296L26.6609 19.3276H24.1103Z" fill="#BF9444"/>
</svg>
