<svg width="40" height="36" viewBox="0 0 40 36" fill="none" xmlns="http://www.w3.org/2000/svg">
<path d="M17.8029 32.7571C17.9296 32.7571 18.0512 32.7078 18.1408 32.62C18.2304 32.5323 18.2807 32.4133 18.2807 32.2892V30.3718C18.2807 30.2477 18.2304 30.1287 18.1408 30.041C18.0512 29.9532 17.9296 29.9039 17.8029 29.9039C17.6762 29.9039 17.5547 29.9532 17.4651 30.041C17.3755 30.1287 17.3252 30.2477 17.3252 30.3718V32.2892C17.3252 32.4133 17.3755 32.5323 17.4651 32.62C17.5547 32.7078 17.6762 32.7571 17.8029 32.7571Z" fill="#BF9444"/>
<path d="M1.40892 32.3644H1.41744L2.00889 32.354C1.75486 32.5285 1.56866 32.7821 1.48066 33.0734C1.39266 33.3648 1.40804 33.6768 1.5243 33.9585C1.66155 34.2903 1.92748 34.5553 2.26382 34.6954C2.60017 34.8355 2.97953 34.8394 3.3188 34.7062L6.06036 33.6295C6.38388 34.1347 6.79431 34.5814 7.27344 34.9495C8.05704 35.5557 9.00629 35.9212 10.0016 36L33.2874 32.8186C33.5906 32.7742 33.877 32.6541 34.119 32.4698C34.361 32.2855 34.5504 32.0433 34.669 31.7665C36.1267 31.0402 37.3592 29.9448 38.2383 28.5943C38.3068 28.4898 38.3302 28.3629 38.3031 28.2415C38.2761 28.1202 38.201 28.0143 38.0943 27.9473C37.9875 27.8802 37.858 27.8573 37.7341 27.8838C37.6102 27.9103 37.5021 27.9838 37.4336 28.0884C36.7546 29.135 35.8359 30.0122 34.7502 30.6503C34.6627 30.322 34.4784 30.0262 34.2203 29.7999C33.9622 29.5735 33.6417 29.4267 33.2988 29.3777L21.6139 27.6486C21.0833 26.5538 20.8118 24.8701 20.7725 23.6264C22.4305 22.0035 22.9755 20.3614 23.1191 19.1714C23.1712 18.7401 23.1795 18.3047 23.1439 17.8717C23.9728 17.0826 24.9461 16.4536 26.0129 16.0176C26.5329 16.6074 27.2167 17.0511 28.0583 17.3426C27.612 17.5525 27.1797 17.7898 26.7641 18.0533C25.8166 18.6541 25.7632 19.4607 25.8157 19.888C25.8307 20.014 25.8755 20.1348 25.9466 20.2409C26.0176 20.3469 26.1129 20.4354 26.2249 20.4991C26.3369 20.5628 26.4625 20.6001 26.5917 20.608C26.721 20.6159 26.8504 20.5942 26.9696 20.5446C27.5394 20.3083 28.1626 20.2228 28.7767 20.2969C29.7694 20.4241 30.496 20.1296 30.9681 19.8134C31.2488 20.5247 31.7902 21.1079 32.4866 21.4491C33.0312 21.7344 33.4893 22.1554 33.8146 22.6696C33.8817 22.7773 33.9738 22.8681 34.0833 22.9346C34.1928 23.0012 34.3167 23.0416 34.4451 23.0527C34.4715 23.055 34.4979 23.0563 34.524 23.0563C34.641 23.0564 34.7566 23.0323 34.8634 22.9857C34.9703 22.9391 35.0659 22.8709 35.144 22.7857C35.4395 22.4665 35.8728 21.7777 35.4545 20.7525C35.271 20.3028 35.0584 19.865 34.818 19.4418C35.6859 19.6811 36.5149 19.7031 37.295 19.509C38.5074 21.1482 38.9472 22.9851 38.6088 24.9874C38.5973 25.0545 38.6008 25.1233 38.6191 25.1889C38.6374 25.2545 38.6702 25.3154 38.715 25.3674C38.7599 25.4194 38.8157 25.4611 38.8788 25.4898C38.9418 25.5184 39.0104 25.5332 39.0799 25.5332H39.081C39.1936 25.5336 39.3027 25.4949 39.389 25.424C39.4752 25.3531 39.5331 25.2547 39.5524 25.146C39.9258 22.973 39.479 20.9691 38.2181 19.1673C38.8678 18.8346 39.434 18.3648 39.8757 17.7918C39.954 17.691 39.9975 17.5685 39.9999 17.4419C40.0023 17.3152 39.9635 17.1912 39.8891 17.0876C39.8147 16.984 39.7086 16.9063 39.5862 16.8657C39.4637 16.8251 39.3312 16.8238 39.2079 16.8618C38.7327 17.0075 37.8245 17.1534 37.0805 16.4924C35.8792 15.4249 34.6536 15.3474 33.8716 15.4527C34.0019 14.7834 34.0718 14.1042 34.0806 13.4228C34.9958 13.2623 35.8268 12.7985 36.4342 12.1092C36.4618 12.0777 36.4889 12.0456 36.5156 12.0128C37.6947 10.5675 37.361 8.27606 35.7869 7.00903C35.6869 6.93116 35.6038 6.8345 35.5425 6.72473L35.5313 6.70407C35.4657 6.5777 35.428 6.43915 35.4208 6.29753C35.4137 6.1559 35.4372 6.01439 35.4898 5.88228C36.1919 4.0511 35.6917 1.99753 34.2734 0.888486C32.7893 -0.272104 30.6853 -0.297914 29.0378 0.824234C28.846 0.956981 28.6085 1.01023 28.3769 0.972388C28.2562 0.950858 28.1409 0.906323 28.0377 0.841311C26.4071 -0.15748 24.3033 0.148887 23.1444 1.5537C23.1175 1.58629 23.0913 1.6192 23.0659 1.65218C22.6922 2.13451 22.4541 2.70439 22.3755 3.30496C22.2969 3.90553 22.3805 4.51578 22.6179 5.07484C22.8545 5.64567 23.2358 6.14802 23.7257 6.53447C23.7974 7.02408 23.9235 8.63061 22.9391 10.6754C22.8817 10.6119 22.8276 10.5553 22.7776 10.5063C23.4465 8.58991 22.9376 6.59288 21.2933 4.71015C20.6036 3.91712 19.6373 3.40365 18.5825 3.26962C17.5276 3.13559 16.4595 3.39057 15.5859 3.98498C13.525 5.37965 12.5091 7.16015 12.6284 9.15477C11.624 9.52468 10.2396 10.4631 9.91363 12.1568C8.74315 10.7549 6.93296 10.0775 4.62321 10.19C3.5612 10.2377 2.55549 10.6714 1.80271 11.4066C1.04993 12.1418 0.60419 13.1254 0.55264 14.1653C0.427151 16.6127 1.25461 18.486 2.94942 19.6098C2.76963 20.2102 2.53919 21.4207 3.09617 22.6106C3.58682 23.6589 4.55967 24.4332 5.98957 24.9147C6.30508 25.7079 6.71991 26.4596 7.22455 27.1526C6.77457 27.5064 6.38649 27.9297 6.07556 28.4057L3.3188 27.3226C2.9795 27.1897 2.60028 27.1938 2.26402 27.3339C1.92776 27.474 1.66181 27.7388 1.5243 28.0703C1.4078 28.3532 1.3928 28.6664 1.48174 28.9586C1.57069 29.2509 1.75831 29.505 2.01391 29.6792L1.4188 29.6672H1.40892C1.22543 29.6631 1.04295 29.695 0.872204 29.7609C0.701458 29.8268 0.545888 29.9255 0.414634 30.0511C0.283379 30.1768 0.179087 30.3268 0.107883 30.4925C0.0366792 30.6582 0 30.8361 0 31.0158C0 31.1956 0.0366792 31.3735 0.107883 31.5392C0.179087 31.7048 0.283379 31.8549 0.414634 31.9805C0.545888 32.1062 0.701458 32.2048 0.872204 32.2708C1.04295 32.3367 1.22543 32.3686 1.40892 32.3645V32.3644ZM36.4383 17.1846C36.9799 17.6746 37.6947 17.9394 38.4319 17.9231C37.6 18.5925 36.2697 19.0993 34.3484 18.2849C34.2209 18.2305 34.0787 18.218 33.9433 18.2494C33.8079 18.2807 33.6865 18.3542 33.5974 18.4588C33.5082 18.5634 33.456 18.6935 33.4487 18.8296C33.4414 18.9656 33.4793 19.1004 33.5568 19.2136C33.9599 19.8058 34.2986 20.4379 34.5672 21.0992C34.7174 21.4673 34.7066 21.7748 34.5332 22.0343C34.1271 21.4403 33.5765 20.9544 32.931 20.6205C31.843 20.0605 31.7421 19.1189 31.7328 18.9363C31.728 18.8367 31.6919 18.7411 31.6295 18.6623C31.5671 18.5836 31.4814 18.5256 31.3841 18.4963C31.2869 18.4669 31.1828 18.4676 31.0859 18.4983C30.9891 18.529 30.9043 18.5882 30.843 18.6678C30.7316 18.8123 30.1152 19.5255 28.9007 19.3696C28.1761 19.2782 27.4397 19.3643 26.7575 19.6202C26.7702 19.3114 26.9435 19.0548 27.2835 18.8392C27.8942 18.4506 28.5447 18.1255 29.2244 17.8693C29.3544 17.8207 29.4648 17.7321 29.5391 17.6169C29.6134 17.5016 29.6475 17.3659 29.6363 17.23C29.6252 17.0942 29.5693 16.9655 29.4771 16.8634C29.3849 16.7613 29.2614 16.6912 29.1251 16.6637C27.0743 16.2451 26.2888 15.0808 26.0062 14.0651C26.5998 14.495 27.3408 14.6825 28.0728 14.588C28.9141 14.4866 29.6514 14.598 30.2643 14.9187C30.4695 15.0245 30.6587 15.1577 30.8264 15.3145C30.7781 15.778 30.718 16.1758 30.6691 16.4374C30.6497 16.558 30.6791 16.6813 30.7512 16.7809C30.8233 16.8805 30.9323 16.9486 31.0549 16.9706C31.1776 16.9926 31.3041 16.9668 31.4076 16.8987C31.5111 16.8305 31.5833 16.7255 31.6087 16.606C31.6366 16.4569 32.2716 12.9914 31.4481 11.2317C31.6957 11.1732 31.9394 11.0996 32.1776 11.0114C32.3653 10.9413 32.5573 10.883 32.7524 10.8369C33.0835 11.4173 33.5363 14.5276 32.3503 17.1228C32.3237 17.179 32.3089 17.2398 32.3065 17.3017C32.3042 17.3636 32.3144 17.4253 32.3366 17.4833C32.3588 17.5413 32.3925 17.5944 32.4358 17.6395C32.4791 17.6846 32.5311 17.7209 32.5888 17.7461C32.6465 17.7714 32.7088 17.7853 32.772 17.7868C32.8352 17.7883 32.8981 17.7776 32.9571 17.7551C33.016 17.7327 33.0698 17.699 33.1154 17.656C33.1609 17.6131 33.1973 17.5617 33.2224 17.5049C33.3774 17.1639 33.5099 16.8136 33.6192 16.4561C34.0655 16.3296 35.2573 16.1353 36.4383 17.1846ZM28.6302 13.6171C29.2711 13.1016 30.0274 12.7417 30.8374 12.5669C30.9072 13.1085 30.9298 13.655 30.9048 14.2003C30.4038 13.8987 29.6558 13.6126 28.6302 13.6171ZM23.5024 4.72083C23.3249 4.31229 23.2617 3.86489 23.319 3.42451C23.3764 2.98413 23.5524 2.56661 23.8288 2.21477C23.8478 2.19013 23.8672 2.1657 23.8872 2.14148C24.7288 1.1214 26.3292 0.898779 27.5307 1.63464C27.7396 1.76461 27.9727 1.85306 28.2165 1.89492C28.6949 1.97428 29.1858 1.86561 29.5828 1.59253C30.8807 0.708752 32.5256 0.719747 33.6766 1.61982C34.7755 2.47919 35.1532 4.09687 34.5947 5.55354C34.4947 5.80932 34.4511 6.08293 34.4667 6.3564C34.4823 6.62987 34.5569 6.89701 34.6854 7.14026L34.6966 7.16093C34.8169 7.38101 34.9811 7.5752 35.1795 7.73202C36.3387 8.66508 36.614 10.3926 35.7687 11.4287C35.7487 11.4532 35.7289 11.4772 35.7078 11.5008C35.2751 11.9886 34.6961 12.33 34.0535 12.4763C33.9913 11.6051 33.8306 10.8949 33.6399 10.4921C33.491 10.1778 33.3059 9.99308 33.074 9.92751C32.7262 9.82887 32.3242 9.96829 31.8587 10.1296C31.7121 10.1804 31.5626 10.2322 31.4243 10.272C31.0681 9.83963 31.1634 9.41349 31.2332 9.32577C31.304 9.24306 31.3508 9.14322 31.3687 9.0367C31.3866 8.93018 31.3749 8.82092 31.3348 8.72036C31.2948 8.6198 31.2278 8.53164 31.141 8.46513C31.0542 8.39862 30.9507 8.35621 30.8414 8.34234C28.9071 8.0932 28.2552 6.90181 28.0386 6.2136C28.0056 6.10914 27.9441 6.01545 27.8609 5.94257C27.7777 5.86968 27.6757 5.82035 27.566 5.79985C27.4564 5.77936 27.3431 5.78847 27.2383 5.82622C27.1335 5.86397 27.0411 5.92893 26.9711 6.01414C26.7856 6.23894 26.4069 6.48371 25.6566 6.37283C25.1814 6.30594 24.7324 6.11819 24.3544 5.82832C23.9764 5.53846 23.6826 5.1566 23.5024 4.72083ZM30.2784 10.0968L28.7278 10.2178L29.7986 9.07344C29.9462 9.11913 30.1017 9.15929 30.265 9.19391C30.1897 9.49095 30.1943 9.80203 30.2784 10.0968ZM27.636 7.52663L26.519 8.89121L26.5677 7.2789C26.8346 7.22345 27.0879 7.11721 27.313 6.96622C27.4051 7.16127 27.5132 7.34869 27.6362 7.52663H27.636ZM24.7269 7.09488C24.9813 7.1901 25.2454 7.2583 25.5147 7.29832C25.5474 7.30308 25.5789 7.30659 25.6108 7.31041L25.549 9.35696C25.5439 9.51857 25.5907 9.67767 25.6831 9.81173C25.7754 9.94578 25.9084 10.048 26.0634 10.1039C26.2183 10.1597 26.3873 10.1664 26.5463 10.123C26.7054 10.0796 26.8464 9.98824 26.9495 9.86193L28.2754 8.24214C28.4618 8.40417 28.6635 8.54848 28.8777 8.67311L27.9295 9.68679C27.8115 9.81296 27.7335 9.97 27.705 10.1388C27.6765 10.3076 27.6987 10.4809 27.769 10.6375C27.8393 10.7941 27.9545 10.9274 28.1007 11.021C28.247 11.1147 28.4178 11.1647 28.5925 11.1649C28.6166 11.1649 28.6409 11.1639 28.6652 11.162L30.4733 11.0209C30.4374 11.2057 30.4649 11.397 30.5517 11.5649C30.5672 11.5951 30.5816 11.6273 30.596 11.6591C29.2969 11.9428 28.1272 12.6325 27.2634 13.6241C26.6871 13.4899 26.2712 13.1087 26.0012 12.7622C25.9228 12.6616 25.8138 12.588 25.69 12.552C25.5661 12.516 25.4338 12.5194 25.312 12.5619C25.1903 12.6043 25.0855 12.6835 25.0128 12.7881C24.94 12.8926 24.9031 13.0171 24.9073 13.1436C24.9291 13.8715 25.1191 14.5851 25.4629 15.2309C24.5541 15.6236 23.7087 16.1441 22.9534 16.7759C22.9358 16.7122 22.9187 16.6544 22.9029 16.6043C23.3915 15.8831 23.8553 14.9622 23.9808 13.9506C25.3363 12.6621 25.7087 10.8875 25.7241 10.8103L24.7869 10.6277C24.617 11.3183 24.324 11.9742 23.9215 12.5651C23.8454 12.2153 23.722 11.877 23.5545 11.5592C24.584 9.6726 24.7502 8.05484 24.7272 7.09488H24.7269ZM13.2568 9.9392C13.3702 9.91118 13.4691 9.84341 13.5349 9.74874C13.6007 9.65407 13.6287 9.53906 13.6137 9.4255C13.3748 7.61748 14.2209 6.04595 16.1292 4.75475C16.8084 4.29251 17.6389 4.09416 18.4592 4.19829C19.2795 4.30241 20.0309 4.70157 20.5673 5.31813C22.0734 7.04287 22.4797 8.77331 21.7748 10.4614C21.7349 10.5568 21.7284 10.6623 21.7561 10.7617C21.7838 10.8611 21.8442 10.9487 21.928 11.0111C22.3486 11.3682 22.6699 11.824 22.8619 12.3357C23.3051 13.5142 23.0092 14.8362 21.982 16.2657C21.9355 16.3304 21.9065 16.4056 21.8977 16.4843C21.889 16.563 21.9007 16.6426 21.9319 16.7156C21.936 16.7251 22.3367 17.683 22.1702 19.0627C21.9756 20.6741 21.1147 22.1341 19.6082 23.4137C19.6187 21.4944 19.1967 19.3111 17.6326 17.6988C17.3434 17.4004 17.0237 17.1319 16.6785 16.8974C16.8385 16.2371 17.0044 15.5874 17.171 14.9584C17.9077 14.7076 19.9453 13.8834 20.5833 12.2641C20.6289 12.1483 20.6257 12.0195 20.5743 11.906C20.523 11.7925 20.4277 11.7037 20.3094 11.659C20.1912 11.6144 20.0596 11.6175 19.9438 11.6678C19.8279 11.7181 19.7371 11.8115 19.6915 11.9273C19.3194 12.8719 18.2424 13.4946 17.4757 13.8328C18.3456 10.6903 19.1518 8.31583 19.1626 8.28432C19.1831 8.2259 19.1915 8.16408 19.1875 8.10244C19.1834 8.0408 19.167 7.98055 19.139 7.92518C19.1111 7.8698 19.0722 7.82039 19.0247 7.7798C18.9771 7.73921 18.9218 7.70824 18.862 7.68868C18.8022 7.66912 18.739 7.66136 18.6761 7.66583C18.6132 7.67031 18.5518 7.68695 18.4955 7.71477C18.4392 7.7426 18.389 7.78108 18.348 7.82797C18.3069 7.87487 18.2758 7.92926 18.2563 7.98802C18.2453 8.02014 17.4172 10.4588 16.5304 13.6717C15.9722 13.0021 15.2435 11.7836 15.6361 10.2843C15.6676 10.1641 15.649 10.0366 15.5845 9.92981C15.52 9.82302 15.4148 9.7457 15.292 9.71486C15.1693 9.68403 15.0391 9.70221 14.93 9.76539C14.821 9.82858 14.742 9.9316 14.7105 10.0518C14.0952 12.4015 15.6323 14.1611 16.24 14.7459C16.0966 15.2872 15.954 15.8437 15.815 16.4091C15.6321 16.3246 15.4442 16.2507 15.2524 16.1878C14.7878 14.8707 13.8643 13.2916 12.0525 12.7366C11.6529 12.6151 11.2375 12.551 10.8191 12.5462C11.0512 10.5239 13.1618 9.9633 13.2568 9.9392ZM20.5124 27.4859L19.5489 27.3434C19.4715 26.7702 19.4115 25.7893 19.5039 25.0256C19.5182 24.9077 19.5311 24.7869 19.5429 24.6644C19.6528 24.5837 19.7606 24.5028 19.8642 24.4215C19.9557 25.4345 20.1677 26.5575 20.5124 27.4859ZM6.81392 24.3966C6.79032 24.3255 6.74966 24.2609 6.69534 24.2084C6.64102 24.1558 6.57462 24.1168 6.50171 24.0945C5.22055 23.7036 4.36857 23.0758 3.9683 22.2282C3.37653 20.9744 3.95739 19.6096 3.96272 19.5973C4.00931 19.4922 4.01486 19.3739 3.97831 19.2651C3.94176 19.1562 3.86567 19.0642 3.76446 19.0066C2.15063 18.0884 1.39117 16.4751 1.50702 14.2115C1.54732 13.4035 1.89389 12.6393 2.47898 12.0682C3.06408 11.4972 3.84562 11.1604 4.67083 11.1237C6.99077 11.0105 8.64409 11.7521 9.58446 13.3279C9.63756 13.4158 9.7184 13.4844 9.81479 13.5234C9.91119 13.5624 10.0179 13.5697 10.1189 13.5442C10.2432 13.5126 13.1765 12.8181 14.4217 16.7077C14.4471 16.7861 14.493 16.8565 14.5548 16.9121C14.6167 16.9677 14.6923 17.0064 14.7742 17.0245C14.7858 17.0271 15.9431 17.2934 16.9766 18.3805C18.3516 19.8269 18.8976 22.0866 18.5554 24.9152C18.4644 25.6676 18.5046 26.5638 18.5713 27.1984L16.9665 26.961C16.9588 26.841 16.9039 26.7286 16.8134 26.6474C16.2104 26.1069 15.5899 25.4999 14.9661 24.8524C15.1534 24.094 15.5673 21.9331 14.6494 20.4635C14.5829 20.3583 14.4767 20.2832 14.3538 20.2545C14.231 20.2259 14.1016 20.246 13.9938 20.3105C13.8861 20.375 13.8088 20.4787 13.7789 20.5989C13.749 20.719 13.7689 20.8459 13.8343 20.9517C14.3896 21.8406 14.3052 23.148 14.1648 24.0011C12.8658 22.5909 11.5787 21.0521 10.4304 19.6136C10.6811 18.8767 11.2419 16.8236 10.3189 15.3453C10.2528 15.2395 10.1464 15.1637 10.0233 15.1346C9.90008 15.1056 9.77015 15.1256 9.66206 15.1904C9.55396 15.2551 9.47657 15.3593 9.44689 15.4799C9.41721 15.6005 9.43768 15.7278 9.5038 15.8336C10.0394 16.6913 9.89444 17.8922 9.70286 18.6919C7.68661 16.1123 6.25018 14.0566 6.22144 14.0153C6.18609 13.9645 6.14089 13.9211 6.0884 13.8874C6.03591 13.8538 5.97716 13.8306 5.91551 13.8192C5.85387 13.8077 5.79053 13.8083 5.72911 13.8209C5.66769 13.8334 5.6094 13.8577 5.55757 13.8923C5.50573 13.9269 5.46136 13.9712 5.42699 14.0226C5.39262 14.074 5.36893 14.1315 5.35727 14.1919C5.34561 14.2523 5.3462 14.3143 5.35901 14.3744C5.37183 14.4346 5.39662 14.4917 5.43196 14.5424C5.46126 14.5845 6.93758 16.6976 9.0071 19.3399C8.12375 19.3658 6.6784 19.1909 5.69472 17.9648C5.61644 17.8673 5.50178 17.8042 5.37597 17.7894C5.25017 17.7746 5.12352 17.8094 5.02388 17.886C4.92425 17.9627 4.85979 18.075 4.8447 18.1982C4.8296 18.3214 4.8651 18.4454 4.94338 18.543C6.11036 19.9976 7.76154 20.276 8.85486 20.276C9.13847 20.2763 9.42176 20.2573 9.7027 20.2193C10.8831 21.6967 12.2087 23.2787 13.5462 24.7246C12.6209 24.8884 11.0125 24.976 9.88074 23.958C9.83471 23.9155 9.78052 23.8825 9.72133 23.8607C9.66214 23.8389 9.59912 23.8288 9.53593 23.8311C9.47274 23.8333 9.41063 23.8478 9.35321 23.8738C9.29579 23.8997 9.24419 23.9365 9.20142 23.9821C9.15864 24.0277 9.12554 24.0812 9.10402 24.1394C9.08251 24.1977 9.07301 24.2595 9.07608 24.3214C9.07915 24.3832 9.09473 24.4438 9.12191 24.4997C9.1491 24.5557 9.18734 24.6057 9.23443 24.6471C10.2107 25.5253 11.4191 25.763 12.4417 25.763C13.0682 25.76 13.6917 25.6783 14.297 25.52C14.711 25.9495 15.1241 26.3611 15.5319 26.7486L10.844 26.0546C10.8336 26.0531 10.8233 26.0519 10.8129 26.051C9.84431 25.9743 8.87398 26.177 8.02159 26.6339C7.51597 25.946 7.10959 25.1932 6.81392 24.3966ZM6.98822 28.7493C7.82364 27.5835 9.23817 26.8655 10.7172 26.9827L14.2685 27.5082V29.8516C14.2685 29.9757 14.3188 30.0947 14.4084 30.1824C14.498 30.2702 14.6195 30.3195 14.7462 30.3195C14.8729 30.3195 14.9944 30.2702 15.084 30.1824C15.1736 30.0947 15.224 29.9757 15.224 29.8516V27.6496L24.9069 29.0829V30.43C24.9069 30.5541 24.9572 30.6731 25.0468 30.7609C25.1364 30.8486 25.2579 30.8979 25.3846 30.8979C25.5113 30.8979 25.6328 30.8486 25.7224 30.7609C25.812 30.6731 25.8624 30.5541 25.8624 30.43V29.2239L33.156 30.3032C33.3505 30.331 33.5283 30.4267 33.6565 30.5727C33.7847 30.7186 33.8548 30.905 33.8538 31.0976C33.853 31.2906 33.7816 31.4769 33.6526 31.6227C33.5237 31.7686 33.3456 31.8645 33.1507 31.8929L30.2466 32.3033V31.9914C30.2466 31.8673 30.1962 31.7483 30.1066 31.6606C30.0171 31.5729 29.8955 31.5236 29.7688 31.5236C29.6421 31.5236 29.5206 31.5729 29.431 31.6606C29.3414 31.7483 29.2911 31.8673 29.2911 31.9914V32.4392L21.7768 33.5024V32.0676C21.7768 31.9435 21.7265 31.8245 21.6369 31.7368C21.5473 31.649 21.4258 31.5998 21.2991 31.5998C21.1724 31.5998 21.0509 31.649 20.9613 31.7368C20.8717 31.8245 20.8213 31.9435 20.8213 32.0676V33.6374L10.7657 35.06V32.5623C10.7657 32.4382 10.7154 32.3192 10.6258 32.2315C10.5362 32.1437 10.4147 32.0944 10.2879 32.0944C10.1612 32.0944 10.0397 32.1437 9.95013 32.2315C9.86053 32.3192 9.8102 32.4382 9.8102 32.5623V35.0353C9.24049 34.9469 8.69511 34.7459 8.20723 34.4446C7.71936 34.1433 7.29919 33.7479 6.9723 33.2825C7.20908 32.9031 7.38676 32.4913 7.49949 32.0607C7.70484 31.2722 7.77069 30.0769 6.98822 28.7493ZM2.9632 33.8377C2.85881 33.8787 2.74207 33.8777 2.63848 33.8347C2.53489 33.7918 2.45288 33.7104 2.41036 33.6084C2.38958 33.5584 2.37916 33.5048 2.3797 33.4507C2.38025 33.3967 2.39175 33.3433 2.41355 33.2937C2.43538 33.2433 2.46723 33.1978 2.50725 33.1596C2.54726 33.1214 2.59464 33.0914 2.64661 33.0714L4.57352 32.309L5.45736 32.2934C5.50506 32.4622 5.56172 32.6283 5.62712 32.7913L2.9632 33.8377ZM2.41036 28.4201C2.45288 28.3182 2.53488 28.2368 2.63845 28.1939C2.74202 28.1509 2.85874 28.1498 2.96312 28.1909L5.6358 29.2408C5.56782 29.4068 5.50897 29.5763 5.45951 29.7485L4.52718 29.7301L2.64549 28.957C2.59398 28.937 2.54702 28.9072 2.5073 28.8693C2.46758 28.8315 2.43589 28.7863 2.41404 28.7364C2.3922 28.6865 2.38063 28.6329 2.37999 28.5786C2.37936 28.5244 2.38968 28.4705 2.41036 28.4201ZM1.40494 30.6028L6.6655 30.7089C6.68583 30.9177 6.68554 31.1279 6.66463 31.3366L1.4055 31.4287C1.29667 31.4244 1.19377 31.379 1.11831 31.3021C1.04284 31.2252 1.00067 31.1227 1.00059 31.016C1.00052 30.9094 1.04256 30.8068 1.11792 30.7298C1.19328 30.6528 1.29612 30.6073 1.40494 30.6028Z" fill="#BF9444"/>
</svg>
