<svg width="185" height="41" viewBox="0 0 185 41" fill="none" xmlns="http://www.w3.org/2000/svg">
<path fill-rule="evenodd" clip-rule="evenodd" d="M19.4518 13.6252C21.9539 17.8561 14.4763 22.929 11.5939 20.0037C8.71145 17.0794 13.71 9.48951 17.8789 12.0298L23.411 6.41643C25.574 4.2222 28.488 3.01378 31.5429 3.01378C34.5968 3.01378 37.5127 4.2222 39.6748 6.41643C41.8368 8.60968 43.0304 11.568 43.0304 14.6693C43.0304 17.7696 41.8368 20.727 39.6748 22.9222L26.1497 36.6475C24.4149 38.4091 21.5851 38.4091 19.8503 36.6475L6.32524 22.9212C4.16318 20.727 2.9696 17.7696 2.9696 14.6683C2.9696 11.568 4.16318 8.61065 6.32524 6.41643C8.4873 4.2222 11.4032 3.01378 14.4571 3.01378C17.512 3.01378 20.426 4.2222 22.589 6.41643L22.2883 6.72072C21.6062 7.41292 20.5554 7.50819 19.7641 6.94821C18.218 5.85548 16.3711 5.26439 14.4571 5.26439C11.9924 5.26439 9.64161 6.24241 7.89721 8.01276C6.15377 9.78311 5.19296 12.1689 5.19296 14.6693C5.19296 17.1707 6.15281 19.5565 7.89721 21.3259L21.4778 35.1095C22.316 35.9592 23.682 35.9592 24.5202 35.1095L38.1018 21.3268C39.8453 19.5565 40.8061 17.1707 40.8061 14.6703C40.8061 12.1698 39.8462 9.78311 38.1018 8.01373C36.3574 6.24338 34.0067 5.26536 31.5419 5.26536C29.0781 5.26536 26.7264 6.24338 24.9829 8.01373L19.4518 13.6252ZM27.9841 11.8908C29.2869 11.2472 30.8675 11.5048 31.9078 12.5461L35.7223 16.4163C35.9743 16.673 35.9743 17.091 35.7223 17.3477C35.4694 17.6053 35.0575 17.6043 34.8046 17.3477L31.0007 13.4871C30.8924 13.3773 30.7152 13.3773 30.607 13.4871C30.4987 13.597 30.4987 13.7768 30.607 13.8857L34.4119 17.7473C34.6638 18.0029 34.6648 18.422 34.4119 18.6776C34.159 18.9343 33.7471 18.9343 33.4942 18.6776L29.6893 14.8171C29.582 14.7082 29.4038 14.7072 29.2955 14.8171C29.1873 14.926 29.1873 15.1068 29.2955 15.2157L33.1005 19.0772C33.3534 19.3329 33.3534 19.7519 33.1005 20.0086C32.8485 20.2642 32.4356 20.2642 32.1828 20.0086L28.3778 16.148C28.2706 16.0391 28.0924 16.0391 27.9841 16.148C27.8759 16.2569 27.8759 16.4377 27.9841 16.5476L31.789 20.4081C32.0419 20.6638 32.0419 21.0828 31.789 21.3395C31.5362 21.5952 31.1242 21.5952 30.8713 21.3395L27.0578 17.4682C26.028 16.4144 25.7771 14.8083 26.4122 13.4862L24.8651 11.9151C24.0968 11.1354 24.0968 9.86283 24.8651 9.08313L25.0423 8.90328L27.9841 11.8908ZM23 2.81739C25.4648 0.989685 28.4478 0 31.5429 0C35.3842 0.000972186 39.055 1.52536 41.7746 4.2854C44.4932 7.04446 46 10.7689 46 14.6683C46 18.5678 44.4932 22.2922 41.7746 25.0513L28.2121 38.8155C25.3412 41.7282 20.6579 41.7282 17.7879 38.8155L4.22545 25.0523C1.50683 22.2922 0 18.5678 0 14.6683C0 10.7689 1.50683 7.04446 4.22545 4.2854C6.94407 1.52536 10.6158 0.000972186 14.4571 0C17.5522 0 20.5352 0.989685 23 2.81739Z" fill="#BF9444"/>
<path d="M72.1078 37H56V35.7137C57.5031 35.6825 58.6188 35.5656 59.3471 35.3629C60.0754 35.1446 60.5712 34.7626 60.8347 34.2169C61.1136 33.6712 61.2531 32.8136 61.2531 31.6442V9.80014C61.2531 8.5528 61.1368 7.62509 60.9044 7.01701C60.672 6.40893 60.1916 5.98016 59.4633 5.73069C58.7505 5.48122 57.5961 5.3331 56 5.28632V4H74.3392C76.6481 4 78.6625 4.40539 80.3826 5.21616C82.1181 6.01134 83.4197 7.07938 84.2875 8.42027C85.1707 9.74557 85.6124 11.18 85.6124 12.7236C85.6124 13.7371 85.4109 14.7271 85.008 15.6938C84.6051 16.6449 84.0241 17.5103 83.2648 18.2899C82.5055 19.0695 81.5835 19.7399 80.4988 20.3012C79.4296 20.8469 78.1822 21.2367 76.7566 21.4706C77.8258 22.5464 79.1429 24.0666 80.708 26.0312L83.0091 28.7675C83.1331 28.9079 83.288 29.0872 83.474 29.3055C83.6599 29.5081 83.9001 29.7732 84.1945 30.1006C84.9383 31.005 85.5659 31.7534 86.0772 32.3459C86.5886 32.9228 87.0922 33.4451 87.5881 33.9128C88.0994 34.3806 88.5953 34.7626 89.0757 35.0588C89.556 35.3395 90.0674 35.5578 90.6098 35.7137V37H86.24C85.2482 37 84.3107 36.7817 83.4275 36.3451C82.5442 35.893 81.6919 35.2615 80.8707 34.4507C80.0649 33.64 79.1429 32.5719 78.1047 31.2466L74.8506 27.0836C73.3475 25.1191 72.224 23.7626 71.4803 23.0142C70.752 22.2502 70.1166 21.8682 69.5743 21.8682H66.9942V31.7845C66.9942 32.7668 67.1182 33.5386 67.3661 34.0999C67.6141 34.6612 68.1564 35.0666 68.9932 35.3161C69.4426 35.4408 69.9927 35.5422 70.6435 35.6201C71.2943 35.6981 71.7824 35.7293 72.1078 35.7137V37ZM61.9969 9.61304V32.6967C61.9969 34.1623 61.4623 35.168 60.393 35.7137C62.423 35.6669 63.438 34.8795 63.438 33.3515V9.75337C63.438 8.5528 63.3682 7.64848 63.2288 7.0404C63.1048 6.41673 62.8026 5.95677 62.3223 5.66052C61.8574 5.36428 61.1368 5.23955 60.1606 5.28632C60.9664 5.64493 61.47 6.12048 61.6714 6.71297C61.8884 7.28987 61.9969 8.25656 61.9969 9.61304ZM66.9942 10.034V20.5819H70.7597C72.0303 20.5819 73.2855 20.3792 74.5252 19.9738C75.7648 19.5528 76.7023 19.0305 77.3376 18.4068C78.6083 17.2062 79.2436 15.3742 79.2436 12.9107C79.2436 9.99504 78.2596 7.85117 76.2917 6.47909C75.5944 5.99575 74.8661 5.67612 74.1068 5.5202C73.3475 5.36428 72.379 5.28632 71.2013 5.28632C70.0082 5.28632 69.1017 5.45004 68.4818 5.77746C67.8775 6.0893 67.4746 6.57264 67.2732 7.2275C67.0872 7.86676 66.9942 8.80227 66.9942 10.034ZM73.0608 21.8682H71.1548C71.7127 22.2892 72.3558 22.9206 73.0841 23.7626C73.8279 24.6045 74.7576 25.7427 75.8733 27.1772C76.989 28.6116 78.1124 30.0695 79.2436 31.5507C80.2818 32.876 81.2426 33.8972 82.1258 34.6145C83.0091 35.3161 83.7916 35.7682 84.4734 35.9709C85.1552 36.1736 85.8835 36.2906 86.6583 36.3218C85.6976 35.854 84.7756 35.2147 83.8923 34.404C83.0091 33.5776 82.0561 32.5407 81.0334 31.2934C80.0262 30.0305 78.9802 28.7052 77.8955 27.3175C76.8263 25.9298 75.7183 24.6201 74.5717 23.3884C74.4167 23.1701 74.223 22.9284 73.9906 22.6634C73.7736 22.3827 73.4637 22.1176 73.0608 21.8682ZM75.1063 20.4649C77.1827 20.1999 78.7787 19.4203 79.8944 18.1262C81.0101 16.832 81.568 15.078 81.568 12.8639C81.568 10.7123 81.0721 9.00496 80.0804 7.74203C79.0887 6.4635 77.6785 5.69171 75.8501 5.42665C77.2447 6.14387 78.2829 7.11056 78.9647 8.32672C79.662 9.52729 80.0107 11.1332 80.0107 13.1446C80.0107 15.2651 79.6 16.8554 78.7787 17.9157C77.973 18.9759 76.7488 19.8257 75.1063 20.4649Z" fill="#BF9444"/>
<path d="M103.876 23.7578C104.475 23.7578 105.016 23.9134 105.5 24.2246C106.013 24.5076 106.469 24.8896 106.868 25.3706C105.529 25.8516 104.19 26.3468 102.851 26.8561C101.54 27.3371 100.215 27.8181 98.8763 28.2992C98.9048 27.705 99.0187 27.1532 99.2182 26.6439C99.4461 26.1346 99.731 25.6818 100.073 25.2857C100.529 24.8047 101.07 24.4368 101.697 24.1822C102.352 23.8992 103.079 23.7578 103.876 23.7578ZM109.304 34.7505L107.124 32.2039C106.697 32.6567 106.213 32.9962 105.671 33.2226C105.13 33.4489 104.532 33.5621 103.876 33.5621C102.993 33.5621 102.195 33.3923 101.483 33.0528C100.799 32.6849 100.244 32.2039 99.8165 31.6097C101.754 30.9023 103.677 30.195 105.586 29.4876C107.523 28.7802 109.46 28.0728 111.398 27.3654C111.141 26.3468 110.771 25.413 110.287 24.5642C109.802 23.687 109.247 22.9372 108.62 22.3147C107.965 21.6922 107.224 21.2112 106.398 20.8716C105.6 20.5038 104.76 20.3199 103.876 20.3199C102.68 20.3199 101.554 20.5462 100.5 20.999C99.4746 21.4234 98.5771 22.0034 97.8079 22.7391C97.0386 23.5031 96.4261 24.3944 95.9703 25.413C95.5429 26.4317 95.3292 27.5069 95.3292 28.6387C95.3292 29.7988 95.5429 30.8882 95.9703 31.9068C96.4261 32.8972 97.0386 33.7743 97.8079 34.5383C98.5771 35.3023 99.4746 35.9106 100.5 36.3633C101.554 36.7878 102.68 37 103.876 37C104.959 37 105.956 36.8019 106.868 36.4058C107.78 36.0097 108.592 35.4579 109.304 34.7505Z" fill="#BF9444"/>
<path d="M124.868 35.0476C125.267 34.51 125.537 33.9582 125.68 33.3923C125.851 32.8264 125.936 32.3454 125.936 31.9493C125.936 31.0721 125.78 30.3506 125.466 29.7847C125.153 29.1905 124.754 28.6953 124.27 28.2992C123.785 27.9313 123.258 27.6201 122.688 27.3654C122.119 27.1108 121.592 26.8844 121.107 26.6863C120.594 26.4883 120.153 26.2902 119.782 26.0921C119.412 25.8658 119.198 25.5828 119.141 25.2433C119.113 25.0169 119.127 24.8188 119.184 24.6491C119.241 24.451 119.341 24.2812 119.483 24.1397C119.626 24.0266 119.811 23.9417 120.039 23.8851C120.267 23.8002 120.537 23.7578 120.851 23.7578C121.079 23.7578 121.292 23.7861 121.492 23.8426C121.691 23.8709 121.905 23.9134 122.133 23.97V25.795H125.295V22.1025C124.982 21.7629 124.611 21.48 124.184 21.2536C123.785 21.0273 123.372 20.8433 122.945 20.7019C122.517 20.5604 122.09 20.4613 121.663 20.4048C121.264 20.3482 120.922 20.3199 120.637 20.3199C120.153 20.3199 119.611 20.4048 119.013 20.5745C118.415 20.7443 117.859 21.0273 117.346 21.4234C116.834 21.7912 116.406 22.2722 116.064 22.8665C115.722 23.4607 115.552 24.1963 115.552 25.0735C115.552 26.0638 115.722 26.8561 116.064 27.4503C116.406 28.0445 116.834 28.4972 117.346 28.8085C117.888 29.148 118.458 29.4168 119.056 29.6149C119.654 29.7847 120.195 29.9686 120.68 30.1667C121.193 30.3364 121.592 30.5628 121.876 30.8457C122.19 31.1004 122.346 31.4824 122.346 31.9917C122.346 32.2747 122.29 32.5152 122.176 32.7132C122.09 32.883 121.976 33.0245 121.834 33.1377C121.634 33.2792 121.406 33.3782 121.15 33.4348C120.922 33.4914 120.694 33.5197 120.466 33.5197C119.982 33.5197 119.569 33.5055 119.227 33.4772C118.913 33.4206 118.586 33.3216 118.244 33.1801V31.5248H115.081V35.2174C115.651 35.8399 116.42 36.2926 117.389 36.5756C118.358 36.8302 119.369 36.9576 120.423 36.9576C121.563 36.9576 122.489 36.7736 123.201 36.4058C123.913 36.0379 124.469 35.5852 124.868 35.0476Z" fill="#BF9444"/>
<path d="M139.1 36.618V33.265H135.895V24.1397H140.083V20.7019H135.895V10.3457H132.348V20.7019H128.758V24.1397H132.348V36.618H139.1Z" fill="white"/>
<path d="M152.56 36.618V33.265H149.868V28.8934C149.868 28.1577 150.025 27.4786 150.338 26.8561C150.651 26.2336 151.065 25.696 151.577 25.2433C152.09 24.7905 152.674 24.4368 153.33 24.1822C154.013 23.9275 154.726 23.8002 155.466 23.8002C156.549 23.8568 157.332 24.168 157.817 24.7339C158.33 25.2716 158.614 25.9224 158.671 26.6863V33.265H155.381V36.618H164.868V33.265H162.219V25.0735C162.162 23.6587 161.649 22.5128 160.68 21.6356C159.711 20.7584 158.387 20.3199 156.706 20.3199C155.082 20.4048 153.671 20.8292 152.475 21.5932C151.278 22.3288 150.367 23.3899 149.74 24.7764L149.868 22.8665V4.78571H143.073V8.13871H146.321V33.265H143.073V36.618H152.56Z" fill="white"/>
<path d="M182.521 34.5383C183.291 33.7743 183.889 32.8972 184.316 31.9068C184.772 30.8882 185 29.7988 185 28.6387C185 27.5069 184.772 26.4317 184.316 25.413C183.889 24.3944 183.291 23.5031 182.521 22.7391C181.752 22.0034 180.84 21.4234 179.786 20.999C178.732 20.5462 177.607 20.3199 176.41 20.3199C175.213 20.3199 174.088 20.5462 173.034 20.999C172.008 21.4234 171.111 22.0034 170.342 22.7391C169.572 23.5031 168.96 24.3944 168.504 25.413C168.077 26.4317 167.863 27.5069 167.863 28.6387C167.863 29.8271 168.077 30.9165 168.504 31.9068C168.96 32.8972 169.572 33.7743 170.342 34.5383C171.111 35.3023 172.008 35.9106 173.034 36.3633C174.088 36.7878 175.213 37 176.41 37C177.607 37 178.732 36.7878 179.786 36.3633C180.84 35.9106 181.752 35.3023 182.521 34.5383ZM172.863 32.119C172.407 31.6946 172.051 31.1853 171.795 30.5911C171.538 29.9969 171.41 29.3602 171.41 28.6812C171.41 28.0021 171.538 27.3654 171.795 26.7712C172.051 26.177 172.407 25.6535 172.863 25.2008C173.29 24.7481 173.803 24.3944 174.402 24.1397C175 23.8851 175.641 23.7578 176.325 23.7578C177.008 23.7578 177.649 23.8851 178.248 24.1397C178.846 24.3944 179.373 24.7481 179.829 25.2008C180.285 25.6535 180.641 26.177 180.897 26.7712C181.154 27.3654 181.282 28.0021 181.282 28.6812C181.282 29.3602 181.154 29.9969 180.897 30.5911C180.641 31.1853 180.285 31.6946 179.829 32.119C179.373 32.5718 178.846 32.9255 178.248 33.1801C177.649 33.4348 177.008 33.5621 176.325 33.5621C175.641 33.5621 175 33.4348 174.402 33.1801C173.803 32.9255 173.29 32.5718 172.863 32.119Z" fill="white"/>
</svg>
