<svg width="198" height="292" viewBox="0 0 198 292" fill="none" xmlns="http://www.w3.org/2000/svg">
<path d="M41.2243 272.835C40.6507 272.427 40.0947 271.983 39.5594 271.504L39.8929 271.131C39.6364 270.902 39.3848 270.664 39.1384 270.417L38.4317 269.711L38.0781 270.064L36.6646 268.651L37.0182 268.297L35.6047 266.884L35.2511 267.237L33.8377 265.824L34.1912 265.47L32.7777 264.057L32.4242 264.41L31.0107 262.997L31.3642 262.643L29.9507 261.23L29.5972 261.583L28.1837 260.17L28.5372 259.816L27.1238 258.403L26.7702 258.756L25.3567 257.343L25.7103 256.989L24.2968 255.576L23.9432 255.929L22.5297 254.516L22.8833 254.162L21.4698 252.749L21.1162 253.102L19.7027 251.689L20.0563 251.335L18.6428 249.922L18.2893 250.275L16.8758 248.862L17.2293 248.508L15.8158 247.095L15.4623 247.448L14.0488 246.035L14.4023 245.681L12.9888 244.268L12.6353 244.621L11.2218 243.208L11.5754 242.854L10.1619 241.441L9.80831 241.794L8.39483 240.381L8.74839 240.027L7.3349 238.614L6.98134 238.967L5.56786 237.554L5.92142 237.2L4.50793 235.787L4.15437 236.14L2.74089 234.727L3.09445 234.373L1.68095 232.96L1.3274 233.314L-0.0860786 231.9L0.267475 231.546L-1.14602 230.133L-1.49957 230.487L-2.91305 229.073L-2.5595 228.72L-3.97299 227.306L-4.32654 227.66L-5.74002 226.246L-5.38647 225.893L-6.79996 224.479L-7.15351 224.833L-8.567 223.419L-8.21344 223.066L-9.62693 221.652L-9.98048 222.006L-11.394 220.592L-11.0404 220.239L-12.4539 218.825L-12.8075 219.179L-14.2209 217.765L-13.8674 217.412L-15.2809 215.998L-15.6344 216.352L-17.0479 214.938L-16.6944 214.585L-18.1078 213.171L-18.4614 213.525L-19.8749 212.111L-19.5213 211.758L-20.9348 210.344L-21.2884 210.698L-22.7018 209.284L-22.3483 208.931L-23.7618 207.517L-24.1153 207.871L-25.5288 206.457L-25.1753 206.104L-26.5888 204.69L-26.9423 205.044L-28.3558 203.63L-28.0022 203.277L-29.4157 201.863L-29.7693 202.217L-31.1828 200.803L-30.8292 200.45L-32.2427 199.036L-32.5962 199.39L-34.0097 197.976L-33.6562 197.623L-35.0697 196.209L-35.4232 196.563L-36.8367 195.149L-36.4831 194.796L-37.8966 193.382L-38.2502 193.736L-39.6637 192.322L-39.3101 191.969L-40.7236 190.555L-41.0772 190.909L-42.4907 189.495L-42.1371 189.142L-43.5506 187.728L-43.9041 188.082L-45.3176 186.668L-44.9641 186.315L-46.3776 184.901L-46.7311 185.255L-48.1446 183.842L-47.7911 183.488L-49.2045 182.074L-49.5581 182.428L-50.9716 181.015L-50.618 180.661L-52.0315 179.247L-52.3851 179.601L-53.7986 178.188L-53.445 177.834L-54.8585 176.421L-55.212 176.774L-56.6255 175.361L-56.272 175.007L-57.6855 173.594L-58.039 173.947L-59.4525 172.534L-59.099 172.18L-60.5124 170.767L-60.866 171.12L-62.2795 169.707L-61.9259 169.353L-63.3394 167.94L-63.693 168.293L-65.1065 166.88L-64.7529 166.526L-66.1664 165.113L-66.5199 165.466L-67.9334 164.053L-67.5799 163.699L-68.9934 162.286L-69.3469 162.639L-70.7604 161.226L-70.4069 160.872L-71.8203 159.459L-72.1739 159.812L-73.5874 158.399L-73.2338 158.045L-74.6473 156.632L-75.0009 156.985L-76.4144 155.572L-76.0608 155.218L-77.4743 153.805L-77.8278 154.158L-79.2413 152.745L-78.8878 152.391L-79.5945 151.684C-79.8409 151.438 -80.0789 151.186 -80.3085 150.93L-80.681 151.264C-81.1602 150.728 -81.6038 150.172 -82.0118 149.599L-81.6043 149.309C-82.0087 148.74 -82.3771 148.154 -82.7095 147.553L-83.147 147.795C-83.4931 147.17 -83.8012 146.529 -84.0714 145.876L-83.6094 145.685C-83.875 145.043 -84.103 144.389 -84.2932 143.726L-84.7738 143.864C-84.9705 143.179 -85.1279 142.485 -85.2461 141.786L-84.7531 141.703C-84.8686 141.019 -84.9456 140.331 -84.9841 139.641L-85.4833 139.668C-85.523 138.959 -85.523 138.247 -85.4833 137.538L-84.9841 137.565C-84.9456 136.875 -84.8686 136.187 -84.7531 135.503L-85.2461 135.42C-85.1279 134.721 -84.9705 134.027 -84.7738 133.342L-84.2932 133.48C-84.103 132.817 -83.875 132.163 -83.6094 131.521L-84.0714 131.33C-83.8012 130.677 -83.4931 130.036 -83.147 129.411L-82.7095 129.653C-82.3771 129.052 -82.0087 128.466 -81.6044 127.897L-82.0118 127.607C-81.6039 127.034 -81.1603 126.478 -80.681 125.942L-80.3085 126.276C-80.0789 126.02 -79.841 125.768 -79.5945 125.522L-78.8878 124.815L-79.2413 124.461L-77.8278 123.048L-77.4743 123.401L-76.0608 121.988L-76.4144 121.634L-75.0009 120.221L-74.6473 120.574L-73.2338 119.161L-73.5874 118.807L-72.1739 117.394L-71.8204 117.747L-70.4069 116.334L-70.7604 115.98L-69.3469 114.567L-68.9934 114.92L-67.5799 113.507L-67.9334 113.153L-66.52 111.74L-66.1664 112.093L-64.7529 110.68L-65.1065 110.326L-63.693 108.913L-63.3394 109.266L-61.926 107.853L-62.2795 107.499L-60.866 106.086L-60.5125 106.439L-59.099 105.026L-59.4525 104.672L-58.039 103.259L-57.6855 103.612L-56.272 102.199L-56.6256 101.845L-55.2121 100.432L-54.8585 100.785L-53.445 99.372L-53.7986 99.0185L-52.3851 97.605L-52.0315 97.9585L-50.618 96.545L-50.9716 96.1915L-49.5581 94.778L-49.2046 95.1315L-47.7911 93.7181L-48.1446 93.3645L-46.7311 91.951L-46.3776 92.3046L-44.9641 90.8911L-45.3176 90.5375L-43.9042 89.124L-43.5506 89.4776L-42.1371 88.0641L-42.4907 87.7106L-41.0772 86.2971L-40.7236 86.6506L-39.3101 85.2371L-39.6637 84.8836L-38.2502 83.4701L-37.8967 83.8236L-36.4832 82.4102L-36.8367 82.0566L-35.4232 80.6431L-35.0697 80.9967L-33.6562 79.5832L-34.0097 79.2296L-32.5963 77.8161L-32.2427 78.1697L-30.8292 76.7562L-31.1828 76.4026L-29.7693 74.9892L-29.4157 75.3427L-28.0022 73.9292L-28.3558 73.5757L-26.9423 72.1622L-26.5888 72.5157L-25.1753 71.1023L-25.5288 70.7487L-24.1153 69.3352L-23.7618 69.6888L-22.3483 68.2753L-22.7018 67.9217L-21.2884 66.5082L-20.9348 66.8618L-20.2281 66.155L-19.5213 65.4483L-19.8749 65.0947L-18.4614 63.6813L-18.1078 64.0348L-16.6943 62.6213L-17.0479 62.2678L-15.6344 60.8543L-15.2809 61.2078L-13.8674 59.7944L-14.2209 59.4408L-12.8074 58.0273L-12.4539 58.3809L-11.0404 56.9674L-11.3939 56.6138L-9.98046 55.2003L-9.62691 55.5539L-8.21343 54.1404L-8.56698 53.7869L-7.15349 52.3734L-6.79994 52.7269L-5.38646 51.3134L-5.74001 50.9599L-4.32652 49.5464L-3.97296 49.9L-2.55948 48.4865L-2.91303 48.1329L-1.49955 46.7194L-1.14599 47.073L0.267496 45.6595L-0.086057 45.3059L1.32743 43.8924L1.68099 44.246L3.09448 42.8325L2.74092 42.479L4.1544 41.0655L4.50796 41.419L5.92145 40.0055L5.56789 39.652L6.98139 38.2385L7.33494 38.592L8.74843 37.1786L8.39488 36.825L9.80836 35.4115L10.1619 35.7651L11.5754 34.3516L11.2218 33.998L12.6353 32.5845L12.9889 32.9381L14.4024 31.5246L14.0488 31.1711L15.4623 29.7576L15.8159 30.1111L17.2294 28.6976L16.8758 28.3441L18.2893 26.9306L18.6428 27.2841L20.0563 25.8707L19.7028 25.5171L21.1163 24.1036L21.4698 24.4572L22.8833 23.0437L22.5297 22.6901L23.9432 21.2766L24.2968 21.6302L25.7103 20.2167L25.3567 19.8632L26.7702 18.4497L27.1238 18.8032L28.5372 17.3897L28.1837 17.0362L29.5972 15.6227L29.9507 15.9763L31.3642 14.5628L31.0107 14.2092L32.4242 12.7957L32.7777 13.1493L34.1912 11.7358L33.8376 11.3822L35.2511 9.96876L35.6047 10.3223L37.0182 8.90882L36.6646 8.55527L38.0781 7.14178L38.4317 7.49533L39.1384 6.78859C39.3848 6.54217 39.6364 6.30418 39.8928 6.07464L39.5594 5.70209C40.0947 5.22285 40.6507 4.77926 41.2242 4.37132L41.514 4.77877C42.0826 4.37439 42.6688 4.00602 43.2696 3.67363L43.0275 3.23613C43.6531 2.89003 44.2941 2.58188 44.9471 2.31172L45.1382 2.77374C45.7803 2.5081 46.4343 2.28015 47.0968 2.08992L46.9589 1.60932C47.6438 1.41266 48.3377 1.25524 49.0368 1.13705L49.1202 1.63005C49.8035 1.51454 50.492 1.43753 51.1823 1.399L51.1544 0.899767C51.8641 0.860152 52.5756 0.860147 53.2853 0.899766L53.2575 1.39899C53.9478 1.43752 54.6363 1.51455 55.3196 1.63005L55.4029 1.13704C56.1021 1.25523 56.7959 1.41266 57.4809 1.60932L57.3429 2.0899C58.0055 2.28016 58.6595 2.5081 59.3015 2.77373L59.4927 2.31171C60.1457 2.58187 60.7866 2.89002 61.4122 3.23613L61.1702 3.67363C61.7709 4.00601 62.3572 4.37437 62.9257 4.77876L63.2155 4.37131C63.7891 4.77925 64.3451 5.22285 64.8804 5.7021L64.5469 6.07463C64.8033 6.30418 65.0549 6.54216 65.3014 6.78858L66.0081 7.4953L66.3616 7.14175L67.7751 8.55525L67.4216 8.9088L68.8351 10.3223L69.1886 9.96874L70.6021 11.3822L70.2486 11.7358L71.662 13.1493L72.0156 12.7957L73.4291 14.2092L73.0755 14.5628L74.489 15.9763L74.8426 15.6227L76.2561 17.0362L75.9025 17.3897L77.316 18.8032L77.6696 18.4497L79.0831 19.8632L78.7295 20.2167L80.143 21.6302L80.4965 21.2767L81.91 22.6902L81.5565 23.0437L82.97 24.4572L83.3235 24.1036L84.737 25.5171L84.3835 25.8707L85.797 27.2842L86.1505 26.9306L87.564 28.3441L87.2104 28.6977L88.6239 30.1112L88.9775 29.7576L90.391 31.1711L90.0374 31.5246L91.4509 32.9381L91.8045 32.5846L93.218 33.9981L92.8644 34.3516L94.2779 35.7651L94.6315 35.4116L96.0449 36.825L95.6914 37.1786L97.1049 38.5921L97.4584 38.2385L98.8719 39.652L98.5184 40.0056L99.9318 41.4191L100.285 41.0655L101.699 42.479L101.345 42.8325L102.759 44.246L103.112 43.8925L104.526 45.306L104.172 45.6595L105.586 47.073L105.939 46.7194L107.353 48.1329L106.999 48.4865L108.413 49.9L108.766 49.5464L110.18 50.9599L109.826 51.3135L111.24 52.7269L111.593 52.3734L113.007 53.7869L112.653 54.1404L114.067 55.5539L114.42 55.2004L115.834 56.6138L115.48 56.9674L116.894 58.3809L117.247 58.0273L118.661 59.4408L118.307 59.7944L119.721 61.2078L120.074 60.8543L121.488 62.2678L121.134 62.6213L122.548 64.0348L122.901 63.6813L124.315 65.0948L123.961 65.4483L125.375 66.8618L125.728 66.5082L127.142 67.9217L126.788 68.2753L128.202 69.6888L128.555 69.3352L129.969 70.7487L129.615 71.1023L131.029 72.5157L131.382 72.1622L132.796 73.5757L132.442 73.9292L133.855 75.3427L134.209 74.9892L135.623 76.4026L135.269 76.7562L136.682 78.1697L137.036 77.8161L138.449 79.2296L138.096 79.5832L139.509 80.9966L139.863 80.6431L141.276 82.0566L140.923 82.4101L142.336 83.8236L142.69 83.4701L144.103 84.8836L143.75 85.2371L145.163 86.6506L145.517 86.297L146.93 87.7105L146.577 88.0641L147.99 89.4776L148.344 89.124L149.757 90.5375L149.404 90.8911L150.817 92.3046L151.171 91.951L152.584 93.3645L152.231 93.718L153.644 95.1315L153.998 94.778L155.411 96.1915L155.058 96.545L156.471 97.9585L156.825 97.6049L158.238 99.0184L157.885 99.372L159.298 100.785L159.652 100.432L161.065 101.845L160.712 102.199L162.125 103.612L162.479 103.259L163.892 104.672L163.539 105.026L164.952 106.439L165.306 106.086L166.719 107.499L166.366 107.853L167.779 109.266L168.133 108.913L169.546 110.326L169.193 110.68L170.606 112.093L170.96 111.74L172.373 113.153L172.02 113.507L173.433 114.92L173.787 114.567L175.2 115.98L174.847 116.334L176.26 117.747L176.614 117.394L178.027 118.807L177.674 119.161L179.087 120.574L179.441 120.221L180.854 121.634L180.501 121.988L181.914 123.401L182.268 123.048L183.681 124.461L183.328 124.815L184.034 125.522C184.281 125.768 184.519 126.02 184.748 126.276L185.121 125.942C185.6 126.478 186.044 127.034 186.452 127.607L186.044 127.897C186.448 128.466 186.817 129.052 187.149 129.653L187.587 129.411C187.933 130.036 188.241 130.677 188.511 131.33L188.049 131.521C188.315 132.163 188.543 132.817 188.733 133.48L189.214 133.342C189.41 134.027 189.568 134.721 189.686 135.42L189.193 135.503C189.308 136.187 189.385 136.875 189.424 137.565L189.923 137.538C189.963 138.247 189.963 138.959 189.923 139.668L189.424 139.641C189.385 140.331 189.308 141.019 189.193 141.703L189.686 141.786C189.568 142.485 189.41 143.179 189.214 143.864L188.733 143.726C188.543 144.389 188.315 145.043 188.049 145.685L188.511 145.876C188.241 146.529 187.933 147.17 187.587 147.795L187.149 147.553C186.817 148.154 186.449 148.74 186.044 149.309L186.452 149.599C186.044 150.172 185.6 150.728 185.121 151.264L184.748 150.93C184.519 151.186 184.281 151.438 184.034 151.684L183.328 152.391L183.681 152.745L182.268 154.158L181.914 153.805L180.501 155.218L180.854 155.572L179.441 156.985L179.087 156.632L177.674 158.045L178.027 158.399L176.614 159.812L176.26 159.459L174.847 160.872L175.2 161.226L173.787 162.639L173.433 162.286L172.02 163.699L172.373 164.053L170.96 165.466L170.606 165.113L169.193 166.526L169.546 166.88L168.133 168.293L167.779 167.94L166.366 169.353L166.719 169.707L165.306 171.12L164.952 170.767L163.539 172.18L163.892 172.534L162.479 173.947L162.125 173.594L160.712 175.007L161.065 175.361L159.652 176.774L159.298 176.421L157.885 177.834L158.238 178.188L156.825 179.601L156.471 179.248L155.058 180.661L155.411 181.015L153.998 182.428L153.644 182.074L152.231 183.488L152.584 183.842L151.171 185.255L150.817 184.901L149.404 186.315L149.757 186.669L148.344 188.082L147.99 187.728L146.577 189.142L146.93 189.495L145.517 190.909L145.163 190.555L143.75 191.969L144.103 192.322L142.69 193.736L142.336 193.382L140.923 194.796L141.276 195.149L139.863 196.563L139.509 196.209L138.096 197.623L138.449 197.976L137.036 199.39L136.682 199.036L135.269 200.45L135.623 200.803L134.209 202.217L133.855 201.863L132.442 203.277L132.796 203.63L131.382 205.044L131.029 204.69L129.615 206.104L129.969 206.457L128.555 207.871L128.202 207.517L126.788 208.931L127.142 209.284L125.728 210.698L125.375 210.344L123.961 211.758L124.315 212.111L122.901 213.525L122.548 213.171L121.134 214.585L121.488 214.938L120.074 216.352L119.721 215.998L118.307 217.412L118.661 217.765L117.247 219.179L116.894 218.825L115.48 220.239L115.834 220.592L114.42 222.006L114.067 221.652L112.653 223.066L113.007 223.419L111.593 224.833L111.24 224.479L109.826 225.893L110.18 226.246L108.766 227.66L108.413 227.306L106.999 228.72L107.353 229.073L105.939 230.487L105.586 230.133L104.172 231.546L104.526 231.9L103.112 233.314L102.759 232.96L101.345 234.373L101.699 234.727L100.285 236.141L99.9318 235.787L98.5183 237.2L98.8719 237.554L97.4584 238.967L97.1048 238.614L95.6914 240.027L96.0449 240.381L94.6314 241.794L94.2779 241.441L92.8644 242.854L93.2179 243.208L91.8044 244.621L91.4509 244.268L90.0374 245.681L90.391 246.035L88.9775 247.448L88.6239 247.095L87.2104 248.508L87.564 248.862L86.1505 250.275L85.7969 249.922L84.3835 251.335L84.737 251.689L83.3235 253.102L82.97 252.749L81.5565 254.162L81.91 254.516L80.4965 255.929L80.143 255.576L78.7295 256.989L79.0831 257.343L77.6696 258.756L77.316 258.403L75.9025 259.816L76.2561 260.17L74.8426 261.583L74.489 261.23L73.0756 262.643L73.4291 262.997L72.0156 264.41L71.6621 264.057L70.2486 265.47L70.6021 265.824L69.1886 267.237L68.8351 266.884L67.4216 268.297L67.7752 268.651L66.3617 270.064L66.0081 269.711L65.3014 270.417C65.055 270.664 64.8034 270.902 64.5469 271.131L64.8804 271.504C64.3451 271.983 63.7891 272.427 63.2155 272.835L62.9257 272.427C62.3572 272.832 61.771 273.2 61.1702 273.532L61.4122 273.97C60.7866 274.316 60.1457 274.624 59.4927 274.894L59.3015 274.432C58.6595 274.698 58.0055 274.926 57.3429 275.116L57.4809 275.597C56.7959 275.793 56.1021 275.951 55.4029 276.069L55.3196 275.576C54.6363 275.691 53.9478 275.768 53.2575 275.807L53.2853 276.306C52.5756 276.346 51.8641 276.346 51.1544 276.306L51.1823 275.807C50.492 275.768 49.8035 275.691 49.1202 275.576L49.0369 276.069C48.3377 275.951 47.6438 275.793 46.9589 275.597L47.0969 275.116C46.4343 274.926 45.7803 274.698 45.1382 274.432L44.9471 274.894C44.2941 274.624 43.6531 274.316 43.0276 273.97L43.2696 273.532C42.6688 273.2 42.0826 272.832 41.5141 272.427L41.2243 272.835Z" stroke="#072B3E" stroke-dasharray="2 2"/>
<rect x="-92.676" y="153.956" width="204.914" height="204.914" rx="18.5" transform="rotate(-45 -92.676 153.956)" stroke="#072B3E" stroke-dasharray="2 2"/>
</svg>
